<?xml version="1.0" standalone="no"?>
<!DOCTYPE svg PUBLIC "-//W3C//DTD SVG 20010904//EN"
 "http://www.w3.org/TR/2001/REC-SVG-20010904/DTD/svg10.dtd">
<svg version="1.0" xmlns="http://www.w3.org/2000/svg"
 width="422.000000pt" height="347.000000pt" viewBox="0 0 422.000000 347.000000"
 preserveAspectRatio="xMidYMid meet">

<g transform="translate(0.000000,347.000000) scale(0.100000,-0.100000)"
fill="#000000" stroke="none">
<path d="M1290 1555 l0 -1055 325 0 325 0 0 428 0 427 317 -3 c295 -2 322 -1
383 18 180 55 320 198 384 390 109 329 -43 690 -344 817 l-65 28 -323 3 c-239
2 -327 0 -338 -9 -10 -8 -14 -8 -14 0 0 8 -91 11 -325 11 l-325 0 0 -1055z
m590 0 l0 -1005 -270 0 -270 0 0 1005 0 1005 270 0 270 0 0 -1005z m689 994
c207 -38 386 -237 427 -474 13 -72 14 -103 5 -164 -30 -198 -127 -351 -284
-445 -91 -54 -156 -64 -468 -72 l-276 -7 -6 69 c-11 112 -8 302 4 310 6 3 103
6 216 5 202 -1 206 0 248 25 68 39 89 82 90 182 l0 84 -55 49 c-81 72 -95 76
-272 82 -105 4 -168 11 -192 21 l-36 15 0 166 0 165 271 0 c149 -1 297 -6 328
-11z m-407 -382 c145 -4 204 -10 225 -21 118 -61 145 -207 54 -297 -53 -54
-92 -61 -312 -57 l-189 3 0 199 c0 157 3 196 13 189 6 -6 101 -13 209 -16z"/>
</g>
</svg>
